<svg xmlns="http://www.w3.org/2000/svg" version="1.1" width = "1024" height = "1024" viewBox = "0 0 1024 1024"  shape-rendering="crispEdges">
<rect x="0.000000" y="0.000000" width="1024.00000000" height="1024.00000000" style="fill:rgb(255,255,255);" /><polygon points="219.428589,258.625671 365.714294,258.625671 292.571442,131.938538" style="fill:rgb(191,191,191);" /><polygon points="219.428589,258.625671 365.714294,258.625671 292.571442,131.938538" style="fill:none;stroke:rgb(63,63,63);stroke-width:0.010000" /><polygon points="438.857147,131.938538 292.571442,131.938538 365.714294,258.625671" style="fill:rgb(191,191,191);" /><polygon points="438.857147,131.938538 292.571442,131.938538 365.714294,258.625671" style="fill:none;stroke:rgb(63,63,63);stroke-width:0.010000" /><polygon points="365.714294,258.625671 512.000000,258.625671 438.857147,131.938538" style="fill:rgb(191,191,191);" /><polygon points="365.714294,258.625671 512.000000,258.625671 438.857147,131.938538" style="fill:none;stroke:rgb(63,63,63);stroke-width:0.010000" /><polygon points="585.142822,131.938538 438.857147,131.938538 512.000000,258.625671" style="fill:rgb(191,191,191);" /><polygon points="585.142822,131.938538 438.857147,131.938538 512.000000,258.625671" style="fill:none;stroke:rgb(63,63,63);stroke-width:0.010000" /><polygon points="512.000000,258.625671 658.285767,258.625671 585.142822,131.938538" style="fill:rgb(191,191,191);" /><polygon points="512.000000,258.625671 658.285767,258.625671 585.142822,131.938538" style="fill:none;stroke:rgb(63,63,63);stroke-width:0.010000" /><polygon points="731.428589,131.938538 585.142822,131.938538 658.285767,258.625671" style="fill:rgb(191,191,191);" /><polygon points="731.428589,131.938538 585.142822,131.938538 658.285767,258.625671" style="fill:none;stroke:rgb(63,63,63);stroke-width:0.010000" /><polygon points="658.285767,258.625671 804.571411,258.625671 731.428589,131.938538" style="fill:rgb(191,191,191);" /><polygon points="658.285767,258.625671 804.571411,258.625671 731.428589,131.938538" style="fill:none;stroke:rgb(63,63,63);stroke-width:0.010000" /><polygon points="146.285706,385.312836 292.571442,385.312836 219.428589,258.625671" style="fill:rgb(191,191,191);" /><polygon points="146.285706,385.312836 292.571442,385.312836 219.428589,258.625671" style="fill:none;stroke:rgb(63,63,63);stroke-width:0.010000" /><polygon points="365.714294,258.625671 219.428589,258.625671 292.571442,385.312836" style="fill:rgb(191,191,191);" /><polygon points="365.714294,258.625671 219.428589,258.625671 292.571442,385.312836" style="fill:none;stroke:rgb(63,63,63);stroke-width:0.010000" /><polygon points="292.571442,385.312836 438.857147,385.312836 365.714294,258.625671" style="fill:rgb(191,191,191);" /><polygon points="292.571442,385.312836 438.857147,385.312836 365.714294,258.625671" style="fill:none;stroke:rgb(63,63,63);stroke-width:0.010000" /><polygon points="512.000000,258.625671 365.714294,258.625671 438.857147,385.312836" style="fill:rgb(191,191,191);" /><polygon points="512.000000,258.625671 365.714294,258.625671 438.857147,385.312836" style="fill:none;stroke:rgb(63,63,63);stroke-width:0.010000" /><polygon points="438.857147,385.312836 585.142822,385.312836 512.000000,258.625671" style="fill:rgb(191,191,191);" /><polygon points="438.857147,385.312836 585.142822,385.312836 512.000000,258.625671" style="fill:none;stroke:rgb(63,63,63);stroke-width:0.010000" /><polygon points="658.285767,258.625671 512.000000,258.625671 585.142822,385.312836" style="fill:rgb(191,191,191);" /><polygon points="658.285767,258.625671 512.000000,258.625671 585.142822,385.312836" style="fill:none;stroke:rgb(63,63,63);stroke-width:0.010000" /><polygon points="585.142822,385.312836 731.428589,385.312836 658.285767,258.625671" style="fill:rgb(191,191,191);" /><polygon points="585.142822,385.312836 731.428589,385.312836 658.285767,258.625671" style="fill:none;stroke:rgb(63,63,63);stroke-width:0.010000" /><polygon points="804.571411,258.625671 658.285767,258.625671 731.428589,385.312836" style="fill:rgb(191,191,191);" /><polygon points="804.571411,258.625671 658.285767,258.625671 731.428589,385.312836" style="fill:none;stroke:rgb(63,63,63);stroke-width:0.010000" /><polygon points="731.428589,385.312836 877.714355,385.312836 804.571411,258.625671" style="fill:rgb(191,191,191);" /><polygon points="731.428589,385.312836 877.714355,385.312836 804.571411,258.625671" style="fill:none;stroke:rgb(63,63,63);stroke-width:0.010000" /><polygon points="73.142853,512.000000 219.428589,512.000000 146.285706,385.312836" style="fill:rgb(191,191,191);" /><polygon points="73.142853,512.000000 219.428589,512.000000 146.285706,385.312836" style="fill:none;stroke:rgb(63,63,63);stroke-width:0.010000" /><polygon points="292.571442,385.312836 146.285706,385.312836 219.428589,512.000000" style="fill:rgb(191,191,191);" /><polygon points="292.571442,385.312836 146.285706,385.312836 219.428589,512.000000" style="fill:none;stroke:rgb(63,63,63);stroke-width:0.010000" /><polygon points="219.428589,512.000000 365.714294,512.000000 292.571442,385.312836" style="fill:rgb(191,191,191);" /><polygon points="219.428589,512.000000 365.714294,512.000000 292.571442,385.312836" style="fill:none;stroke:rgb(63,63,63);stroke-width:0.010000" /><polygon points="438.857147,385.312836 292.571442,385.312836 365.714294,512.000000" style="fill:rgb(191,191,191);" /><polygon points="438.857147,385.312836 292.571442,385.312836 365.714294,512.000000" style="fill:none;stroke:rgb(63,63,63);stroke-width:0.010000" /><polygon points="365.714294,512.000000 512.000000,512.000000 438.857147,385.312836" style="fill:rgb(191,191,191);" /><polygon points="365.714294,512.000000 512.000000,512.000000 438.857147,385.312836" style="fill:none;stroke:rgb(63,63,63);stroke-width:0.010000" /><polygon points="585.142822,385.312836 438.857147,385.312836 512.000000,512.000000" style="fill:rgb(191,191,191);" /><polygon points="585.142822,385.312836 438.857147,385.312836 512.000000,512.000000" style="fill:none;stroke:rgb(63,63,63);stroke-width:0.010000" /><polygon points="512.000000,512.000000 658.285767,512.000000 585.142822,385.312836" style="fill:rgb(191,191,191);" /><polygon points="512.000000,512.000000 658.285767,512.000000 585.142822,385.312836" style="fill:none;stroke:rgb(63,63,63);stroke-width:0.010000" /><polygon points="731.428589,385.312836 585.142822,385.312836 658.285767,512.000000" style="fill:rgb(191,191,191);" /><polygon points="731.428589,385.312836 585.142822,385.312836 658.285767,512.000000" style="fill:none;stroke:rgb(63,63,63);stroke-width:0.010000" /><polygon points="658.285767,512.000000 804.571411,512.000000 731.428589,385.312836" style="fill:rgb(191,191,191);" /><polygon points="658.285767,512.000000 804.571411,512.000000 731.428589,385.312836" style="fill:none;stroke:rgb(63,63,63);stroke-width:0.010000" /><polygon points="877.714355,385.312836 731.428589,385.312836 804.571411,512.000000" style="fill:rgb(191,191,191);" /><polygon points="877.714355,385.312836 731.428589,385.312836 804.571411,512.000000" style="fill:none;stroke:rgb(63,63,63);stroke-width:0.010000" /><polygon points="804.571411,512.000000 950.857178,512.000000 877.714355,385.312836" style="fill:rgb(191,191,191);" /><polygon points="804.571411,512.000000 950.857178,512.000000 877.714355,385.312836" style="fill:none;stroke:rgb(63,63,63);stroke-width:0.010000" /><polygon points="219.428589,512.000000 73.142853,512.000000 146.285706,638.687134" style="fill:rgb(191,191,191);" /><polygon points="219.428589,512.000000 73.142853,512.000000 146.285706,638.687134" style="fill:none;stroke:rgb(63,63,63);stroke-width:0.010000" /><polygon points="146.285706,638.687134 292.571442,638.687134 219.428589,512.000000" style="fill:rgb(191,191,191);" /><polygon points="146.285706,638.687134 292.571442,638.687134 219.428589,512.000000" style="fill:none;stroke:rgb(63,63,63);stroke-width:0.010000" /><polygon points="365.714294,512.000000 219.428589,512.000000 292.571442,638.687134" style="fill:rgb(191,191,191);" /><polygon points="365.714294,512.000000 219.428589,512.000000 292.571442,638.687134" style="fill:none;stroke:rgb(63,63,63);stroke-width:0.010000" /><polygon points="292.571442,638.687134 438.857147,638.687134 365.714294,512.000000" style="fill:rgb(191,191,191);" /><polygon points="292.571442,638.687134 438.857147,638.687134 365.714294,512.000000" style="fill:none;stroke:rgb(63,63,63);stroke-width:0.010000" /><polygon points="512.000000,512.000000 365.714294,512.000000 438.857147,638.687134" style="fill:rgb(191,191,191);" /><polygon points="512.000000,512.000000 365.714294,512.000000 438.857147,638.687134" style="fill:none;stroke:rgb(63,63,63);stroke-width:0.010000" /><polygon points="438.857147,638.687134 585.142822,638.687134 512.000000,512.000000" style="fill:rgb(191,191,191);" /><polygon points="438.857147,638.687134 585.142822,638.687134 512.000000,512.000000" style="fill:none;stroke:rgb(63,63,63);stroke-width:0.010000" /><polygon points="658.285767,512.000000 512.000000,512.000000 585.142822,638.687134" style="fill:rgb(191,191,191);" /><polygon points="658.285767,512.000000 512.000000,512.000000 585.142822,638.687134" style="fill:none;stroke:rgb(63,63,63);stroke-width:0.010000" /><polygon points="585.142822,638.687134 731.428589,638.687134 658.285767,512.000000" style="fill:rgb(191,191,191);" /><polygon points="585.142822,638.687134 731.428589,638.687134 658.285767,512.000000" style="fill:none;stroke:rgb(63,63,63);stroke-width:0.010000" /><polygon points="804.571411,512.000000 658.285767,512.000000 731.428589,638.687134" style="fill:rgb(191,191,191);" /><polygon points="804.571411,512.000000 658.285767,512.000000 731.428589,638.687134" style="fill:none;stroke:rgb(63,63,63);stroke-width:0.010000" /><polygon points="731.428589,638.687134 877.714355,638.687134 804.571411,512.000000" style="fill:rgb(191,191,191);" /><polygon points="731.428589,638.687134 877.714355,638.687134 804.571411,512.000000" style="fill:none;stroke:rgb(63,63,63);stroke-width:0.010000" /><polygon points="950.857178,512.000000 804.571411,512.000000 877.714355,638.687134" style="fill:rgb(191,191,191);" /><polygon points="950.857178,512.000000 804.571411,512.000000 877.714355,638.687134" style="fill:none;stroke:rgb(63,63,63);stroke-width:0.010000" /><polygon points="292.571442,638.687134 146.285706,638.687134 219.428589,765.374268" style="fill:rgb(191,191,191);" /><polygon points="292.571442,638.687134 146.285706,638.687134 219.428589,765.374268" style="fill:none;stroke:rgb(63,63,63);stroke-width:0.010000" /><polygon points="219.428589,765.374268 365.714294,765.374268 292.571442,638.687134" style="fill:rgb(191,191,191);" /><polygon points="219.428589,765.374268 365.714294,765.374268 292.571442,638.687134" style="fill:none;stroke:rgb(63,63,63);stroke-width:0.010000" /><polygon points="438.857147,638.687134 292.571442,638.687134 365.714294,765.374268" style="fill:rgb(191,191,191);" /><polygon points="438.857147,638.687134 292.571442,638.687134 365.714294,765.374268" style="fill:none;stroke:rgb(63,63,63);stroke-width:0.010000" /><polygon points="365.714294,765.374268 512.000000,765.374268 438.857147,638.687134" style="fill:rgb(191,191,191);" /><polygon points="365.714294,765.374268 512.000000,765.374268 438.857147,638.687134" style="fill:none;stroke:rgb(63,63,63);stroke-width:0.010000" /><polygon points="585.142822,638.687134 438.857147,638.687134 512.000000,765.374268" style="fill:rgb(191,191,191);" /><polygon points="585.142822,638.687134 438.857147,638.687134 512.000000,765.374268" style="fill:none;stroke:rgb(63,63,63);stroke-width:0.010000" /><polygon points="512.000000,765.374268 658.285767,765.374268 585.142822,638.687134" style="fill:rgb(191,191,191);" /><polygon points="512.000000,765.374268 658.285767,765.374268 585.142822,638.687134" style="fill:none;stroke:rgb(63,63,63);stroke-width:0.010000" /><polygon points="731.428589,638.687134 585.142822,638.687134 658.285767,765.374268" style="fill:rgb(191,191,191);" /><polygon points="731.428589,638.687134 585.142822,638.687134 658.285767,765.374268" style="fill:none;stroke:rgb(63,63,63);stroke-width:0.010000" /><polygon points="658.285767,765.374268 804.571411,765.374268 731.428589,638.687134" style="fill:rgb(191,191,191);" /><polygon points="658.285767,765.374268 804.571411,765.374268 731.428589,638.687134" style="fill:none;stroke:rgb(63,63,63);stroke-width:0.010000" /><polygon points="877.714355,638.687134 731.428589,638.687134 804.571411,765.374268" style="fill:rgb(191,191,191);" /><polygon points="877.714355,638.687134 731.428589,638.687134 804.571411,765.374268" style="fill:none;stroke:rgb(63,63,63);stroke-width:0.010000" /><polygon points="365.714294,765.374268 219.428589,765.374268 292.571442,892.061462" style="fill:rgb(191,191,191);" /><polygon points="365.714294,765.374268 219.428589,765.374268 292.571442,892.061462" style="fill:none;stroke:rgb(63,63,63);stroke-width:0.010000" /><polygon points="292.571442,892.061462 438.857147,892.061462 365.714294,765.374268" style="fill:rgb(191,191,191);" /><polygon points="292.571442,892.061462 438.857147,892.061462 365.714294,765.374268" style="fill:none;stroke:rgb(63,63,63);stroke-width:0.010000" /><polygon points="512.000000,765.374268 365.714294,765.374268 438.857147,892.061462" style="fill:rgb(191,191,191);" /><polygon points="512.000000,765.374268 365.714294,765.374268 438.857147,892.061462" style="fill:none;stroke:rgb(63,63,63);stroke-width:0.010000" /><polygon points="438.857147,892.061462 585.142822,892.061462 512.000000,765.374268" style="fill:rgb(191,191,191);" /><polygon points="438.857147,892.061462 585.142822,892.061462 512.000000,765.374268" style="fill:none;stroke:rgb(63,63,63);stroke-width:0.010000" /><polygon points="658.285767,765.374268 512.000000,765.374268 585.142822,892.061462" style="fill:rgb(191,191,191);" /><polygon points="658.285767,765.374268 512.000000,765.374268 585.142822,892.061462" style="fill:none;stroke:rgb(63,63,63);stroke-width:0.010000" /><polygon points="585.142822,892.061462 731.428589,892.061462 658.285767,765.374268" style="fill:rgb(191,191,191);" /><polygon points="585.142822,892.061462 731.428589,892.061462 658.285767,765.374268" style="fill:none;stroke:rgb(63,63,63);stroke-width:0.010000" /><polygon points="804.571411,765.374268 658.285767,765.374268 731.428589,892.061462" style="fill:rgb(191,191,191);" /><polygon points="804.571411,765.374268 658.285767,765.374268 731.428589,892.061462" style="fill:none;stroke:rgb(63,63,63);stroke-width:0.010000" /><polygon points="146.285706,385.312836 292.571442,385.312836 219.428589,258.625671" style="fill:rgb(0,255,185);" /><polygon points="365.714294,258.625671 219.428589,258.625671 292.571442,385.312836" style="fill:rgb(0,255,185);" /><polygon points="73.142853,512.000000 219.428589,512.000000 146.285706,385.312836" style="fill:rgb(0,255,185);" /><polygon points="292.571442,385.312836 146.285706,385.312836 219.428589,512.000000" style="fill:rgb(0,255,185);" /><polygon points="219.428589,512.000000 73.142853,512.000000 146.285706,638.687134" style="fill:rgb(0,255,185);" /><polygon points="146.285706,638.687134 292.571442,638.687134 219.428589,512.000000" style="fill:rgb(0,255,185);" /><polygon points="438.857147,638.687134 585.142822,638.687134 512.000000,512.000000" style="fill:rgb(63,191,86);" /><polygon points="438.857147,638.687134 585.142822,638.687134 512.000000,512.000000" style="fill:none;stroke:rgb(255,0,0);stroke-width:0.010000" /><polygon points="365.714294,765.374268 512.000000,765.374268 438.857147,638.687134" style="fill:rgb(63,191,86);" /><polygon points="365.714294,765.374268 512.000000,765.374268 438.857147,638.687134" style="fill:none;stroke:rgb(255,0,0);stroke-width:0.010000" /><polygon points="585.142822,638.687134 438.857147,638.687134 512.000000,765.374268" style="fill:rgb(63,191,86);" /><polygon points="585.142822,638.687134 438.857147,638.687134 512.000000,765.374268" style="fill:none;stroke:rgb(255,0,0);stroke-width:0.010000" /><polygon points="512.000000,765.374268 658.285767,765.374268 585.142822,638.687134" style="fill:rgb(63,191,86);" /><polygon points="512.000000,765.374268 658.285767,765.374268 585.142822,638.687134" style="fill:none;stroke:rgb(255,0,0);stroke-width:0.010000" /><polygon points="731.428589,638.687134 585.142822,638.687134 658.285767,765.374268" style="fill:rgb(63,191,86);" /><polygon points="731.428589,638.687134 585.142822,638.687134 658.285767,765.374268" style="fill:none;stroke:rgb(255,0,0);stroke-width:0.010000" /><polygon points="658.285767,765.374268 804.571411,765.374268 731.428589,638.687134" style="fill:rgb(63,191,86);" /><polygon points="658.285767,765.374268 804.571411,765.374268 731.428589,638.687134" style="fill:none;stroke:rgb(255,0,0);stroke-width:0.010000" /><path stroke-linejoin="round" stroke-linecap="round" stroke="rgb(0,0,0)" stroke-width="10.239990" fill="none" d="M 219.428589 258.625671 L 292.571442 131.938538 M 219.428589 258.625671 L 365.714294 258.625671 M 438.857147 131.938538 L 292.571442 131.938538 M 585.142822 131.938538 L 438.857147 131.938538 M 731.428589 131.938538 L 585.142822 131.938538 M 804.571411 258.625671 L 731.428589 131.938538 M 146.285706 385.312836 L 219.428589 258.625671 M 365.714294 258.625671 L 292.571442 385.312836 M 365.714294 258.625671 L 219.428589 258.625671 M 292.571442 385.312836 L 365.714294 258.625671 M 877.714355 385.312836 L 804.571411 258.625671 M 73.142853 512.000000 L 146.285706 385.312836 M 292.571442 385.312836 L 219.428589 512.000000 L 292.571442 385.312836 M 950.857178 512.000000 L 877.714355 385.312836 M 73.142853 512.000000 L 146.285706 638.687134 M 292.571442 638.687134 L 219.428589 512.000000 M 146.285706 638.687134 L 292.571442 638.687134 M 219.428589 512.000000 L 292.571442 638.687134 M 512.000000 512.000000 L 438.857147 638.687134 M 585.142822 638.687134 L 512.000000 512.000000 M 438.857147 638.687134 L 512.000000 512.000000 L 585.142822 638.687134 L 731.428589 638.687134 M 950.857178 512.000000 L 877.714355 638.687134 M 146.285706 638.687134 L 219.428589 765.374268 M 292.571442 638.687134 L 146.285706 638.687134 M 438.857147 638.687134 L 365.714294 765.374268 L 438.857147 638.687134 M 365.714294 765.374268 L 512.000000 765.374268 L 658.285767 765.374268 M 731.428589 638.687134 L 585.142822 638.687134 M 804.571411 765.374268 L 731.428589 638.687134 M 658.285767 765.374268 L 804.571411 765.374268 M 877.714355 638.687134 L 804.571411 765.374268 M 731.428589 638.687134 L 804.571411 765.374268 M 219.428589 765.374268 L 292.571442 892.061462 L 438.857147 892.061462 M 512.000000 765.374268 L 365.714294 765.374268 M 438.857147 892.061462 L 585.142822 892.061462 M 658.285767 765.374268 L 512.000000 765.374268 M 585.142822 892.061462 L 731.428589 892.061462 M 804.571411 765.374268 L 731.428589 892.061462 M 804.571411 765.374268 L 658.285767 765.374268 " />

</svg>